<?xml version="1.0" encoding="UTF-8"?>
<svg version="1.1" xmlns="http://www.w3.org/2000/svg" width="512" height="512">
<path d="M0 0 C1.5418924 -0.00302368 3.0837833 -0.00691424 4.62567157 -0.01159257 C8.84638469 -0.02185353 13.06701268 -0.0196956 17.28773272 -0.01541197 C21.84613812 -0.01294128 26.40452322 -0.0219632 30.96292114 -0.02944946 C39.88725262 -0.04218915 48.81155401 -0.04399104 57.73589305 -0.0416492 C64.99149077 -0.03986499 72.24707937 -0.0416179 79.50267601 -0.04587364 C81.05262754 -0.04676643 81.05262754 -0.04676643 82.63389122 -0.04767724 C84.73316664 -0.04888902 86.83244206 -0.05010315 88.93171748 -0.05131962 C108.61254673 -0.06219245 128.29335885 -0.06003394 147.97418907 -0.05393478 C165.96834138 -0.04876643 183.96243955 -0.06001935 201.95658115 -0.07903299 C220.44393202 -0.09841765 238.93125728 -0.10666625 257.41861838 -0.10290974 C267.7934384 -0.10099858 278.16821234 -0.10347698 288.54302406 -0.11762428 C297.37573274 -0.12954707 306.20836698 -0.13093292 315.0410767 -0.11883412 C319.54484188 -0.11295162 324.04847096 -0.11182855 328.55222702 -0.12383652 C332.68087637 -0.13471614 336.80927631 -0.13156736 340.9379141 -0.11757483 C342.42573557 -0.11493361 343.91357672 -0.11727627 345.40137885 -0.1253107 C364.1824169 -0.21963434 380.03828718 4.97316343 393.78849792 17.98139954 C405.70580088 29.91712181 411.99133054 45.54552294 412.07212144 62.21478009 C412.06834212 63.51788719 412.06456279 64.82099429 412.06066895 66.16358948 C412.0636924 67.57675018 412.06758285 68.98990925 412.07226151 70.40306544 C412.08252552 74.27259148 412.08036376 78.1420247 412.07608092 82.01155829 C412.07361075 86.19029214 412.08263155 90.36900381 412.09011841 94.54772949 C412.10285998 102.72957337 412.10465972 110.91138441 412.10231815 119.09323654 C412.10053398 125.74578822 412.10228674 132.39832994 412.10654259 139.05088043 C412.10713778 139.99828074 412.10773297 140.94568105 412.10834619 141.92179047 C412.10955797 143.84656042 412.1107721 145.77133037 412.11198857 147.69610032 C412.12286232 165.74261332 412.12070257 183.78910763 412.11460372 201.83562168 C412.10943645 218.33283867 412.12068529 234.82999657 412.13970194 251.32720187 C412.15909086 268.27770468 412.16733438 285.22817956 412.16357869 302.17869353 C412.16166802 311.69056756 412.16414097 321.20239132 412.17829323 330.71425629 C412.19022153 338.81320549 412.19159578 346.9120735 412.17950306 355.01102385 C412.17362414 359.14011217 412.17248746 363.26905208 412.18450546 367.39813042 C412.1953975 371.18449919 412.19222179 374.97059625 412.17824378 378.75695249 C412.17436463 380.76185356 412.18511686 382.76676684 412.19654065 384.77163911 C412.08783762 403.07997196 405.60332461 418.74295064 392.65544128 431.67085266 C378.3366964 444.65762128 362.41475049 448.57377881 343.59994507 448.52139282 C342.05805267 448.5244165 340.51616177 448.52830706 338.9742735 448.53298539 C334.75356038 448.54324636 330.53293239 448.54108842 326.31221235 448.5368048 C321.75380694 448.5343341 317.19542185 448.54335602 312.63702393 448.55084229 C303.71269245 448.56358198 294.78839106 448.56538387 285.86405202 448.56304202 C278.60845429 448.56125781 271.35286569 448.56301072 264.09726906 448.56726646 C262.54731753 448.56815925 262.54731753 448.56815925 260.96605385 448.56907007 C258.86677843 448.57028184 256.76750301 448.57149598 254.66822759 448.57271244 C234.98739834 448.58358527 215.30658622 448.58142677 195.625756 448.5753276 C177.63160369 448.57015925 159.63750552 448.58141218 141.64336392 448.60042582 C123.15601305 448.61981047 104.66868778 448.62805908 86.18132669 448.62430257 C75.80650667 448.6223914 65.43173273 448.6248698 55.05692101 448.63901711 C46.22421233 448.65093989 37.39157809 448.65232574 28.55886837 448.64022694 C24.05510319 448.63434445 19.55147411 448.63322138 15.04771805 448.64522934 C10.9190687 448.65610896 6.79066876 448.65296019 2.66203097 448.63896766 C1.1742095 448.63632643 -0.31363165 448.6386691 -1.80143378 448.64670352 C-20.58247183 448.74102716 -36.43834212 443.5482294 -50.18855286 430.53999329 C-62.11515718 418.59495526 -68.38766307 402.96444892 -68.47683847 386.28510171 C-68.47374127 384.97878579 -68.47064406 383.67246986 -68.467453 382.3265686 C-68.47119325 380.90999538 -68.47579626 379.49342423 -68.48118365 378.07685632 C-68.49338293 374.19786385 -68.49315681 370.31895784 -68.4907949 366.43995059 C-68.49038595 362.25096925 -68.50143337 358.06201535 -68.51091003 353.87304688 C-68.52750448 345.67081828 -68.53301889 337.46861843 -68.53413479 329.26637445 C-68.53508607 322.59666845 -68.53920033 315.92697191 -68.54553604 309.25726891 C-68.56314473 290.33427314 -68.57237557 271.41130003 -68.57087509 252.48829601 C-68.57079518 251.46870816 -68.57071527 250.44912031 -68.57063293 249.39863586 C-68.57051029 247.86737971 -68.57051029 247.86737971 -68.57038517 246.3051891 C-68.56957253 229.76659968 -68.58870575 213.2281014 -68.61690967 196.68953834 C-68.6456618 179.69495931 -68.65944866 162.7004247 -68.65772212 145.70582074 C-68.65705899 136.16986217 -68.66251737 126.63399913 -68.68407822 117.09806252 C-68.70232074 108.97789948 -68.70661222 100.85787525 -68.69305937 92.73770056 C-68.686545 88.59831759 -68.68635676 84.45920069 -68.70376587 80.31984329 C-68.71957007 76.52286904 -68.71655892 72.7263702 -68.69919761 68.92940702 C-68.69470837 66.92125968 -68.70972718 64.91309716 -68.72567689 62.90500814 C-68.59190445 45.17205527 -61.51621608 29.46234605 -49.09065247 16.92085266 C-34.86588435 3.83022146 -18.78537178 -0.05230404 0 0 Z M-1.57502747 71.88569641 C-3.72410738 76.34917007 -4.20961723 80.39091051 -3.20002747 85.26069641 C-0.62575438 89.88351076 2.60789642 93.14950301 6.67497253 96.44819641 C7.24304626 96.91886536 7.81112 97.3895343 8.39640808 97.87446594 C12.98877302 101.65730154 17.66245652 105.33788921 22.35612488 108.99385071 C26.88612691 112.52431283 31.35138694 116.12833561 35.79997253 119.76069641 C40.93426498 123.94839827 46.09081777 128.10387702 51.29997253 132.19819641 C52.16259705 132.87676697 52.16259705 132.87676697 53.04264832 133.56904602 C56.21043564 136.0496928 59.4197869 138.45890369 62.67497253 140.82319641 C63.70622253 141.62757141 64.73747253 142.43194641 65.79997253 143.26069641 C65.79997253 143.92069641 65.79997253 144.58069641 65.79997253 145.26069641 C63.83605544 146.94536905 61.86188549 148.51579407 59.79997253 150.07319641 C58.50729258 151.06797481 57.2156662 152.06412346 55.92497253 153.06147766 C55.24692566 153.58435364 54.56887878 154.10722961 53.87028503 154.64595032 C50.4702495 157.29781765 47.13679008 160.0300186 43.79997253 162.76069641 C38.83819847 166.81118496 33.84825678 170.81854958 28.79997253 174.76069641 C23.61255891 178.81427362 18.47352926 182.9237194 13.36247253 187.07319641 C12.7121405 187.60042297 12.06180847 188.12764954 11.39176941 188.67085266 C9.52148147 190.19322475 7.66042403 191.72632882 5.79997253 193.26069641 C5.15399109 193.78196106 4.50800964 194.30322571 3.842453 194.84028625 C2.90683533 195.61106506 2.90683533 195.61106506 1.95231628 196.39741516 C1.39407166 196.85205139 0.83582703 197.30668762 0.26066589 197.77510071 C-2.77089394 200.8583435 -3.50906387 203.90083363 -3.57502747 208.13569641 C-3.46187429 212.94470658 -2.498654 215.61484604 0.79997253 219.26069641 C4.25774228 222.38915476 7.03419598 223.57337987 11.61247253 223.88569641 C20.5275117 223.39017284 27.43572297 216.10208265 33.98747253 210.57319641 C35.47860355 209.3297409 36.97080552 208.08756861 38.46403503 206.84663391 C39.56279968 205.93349426 39.56279968 205.93349426 40.6837616 205.00190735 C43.70430464 202.51661512 46.77593764 200.10071491 49.86247253 197.69819641 C54.89216335 193.77930431 59.8605097 189.79273012 64.79997253 185.76069641 C69.76232544 181.71085087 74.75248137 177.70391364 79.79997253 173.76069641 C81.51539017 172.41499368 83.22980738 171.06803322 84.94352722 169.72016907 C86.26078513 168.68458678 87.57927132 167.65056602 88.89860535 166.61763 C91.08133171 164.90346483 93.25393488 163.17713185 95.42497253 161.44819641 C96.10044128 160.92096985 96.77591003 160.39374329 97.47184753 159.85054016 C101.99942779 156.22114384 106.1012692 152.63091252 107.33122253 146.69819641 C107.31575378 145.49163391 107.31575378 145.49163391 107.29997253 144.26069641 C107.31028503 143.45632141 107.32059753 142.65194641 107.33122253 141.82319641 C106.06485422 135.71483161 101.58175574 131.850185 96.92497253 128.07319641 C96.3568988 127.60252747 95.78882507 127.13185852 95.20353699 126.64692688 C90.61117205 122.86409128 85.93748854 119.18350362 81.24382019 115.52754211 C76.71382202 111.99708299 72.24843345 108.3932054 67.79997253 104.76069641 C62.27913715 100.25489065 56.71459854 95.81400376 51.09562683 91.43135071 C46.54875459 87.87497567 42.07790262 84.23103752 37.61247253 80.57319641 C24.97340262 69.17981148 24.97340262 69.17981148 9.33903503 64.98335266 C4.29424238 65.53439924 1.7001089 68.26580885 -1.57502747 71.88569641 Z M95.79997253 198.32319641 C92.37281434 203.35683501 92.14228594 207.23962193 92.79997253 213.26069641 C95.14789912 218.13715931 98.08758108 220.66407255 102.79997253 223.26069641 C106.59485948 224.24407062 110.1890375 224.39752556 114.09977722 224.42182922 C115.35167847 224.43143677 116.60357971 224.44104431 117.89341736 224.45094299 C119.25289221 224.45579232 120.6123692 224.46007081 121.97184753 224.46382141 C123.00724545 224.46806248 123.00724545 224.46806248 124.06356049 224.47238922 C127.71788918 224.48734626 131.37217877 224.49659717 135.02653503 224.50093079 C138.77990281 224.50640424 142.53290579 224.53041807 146.28615952 224.55890274 C149.1911571 224.57763266 152.09606869 224.58274023 155.00112152 224.58426666 C156.38366434 224.58727141 157.76620645 224.59522532 159.14868927 224.60845184 C171.56930101 225.02533678 171.56930101 225.02533678 182.4105072 219.80860901 C186.48995999 215.08045782 187.1559064 211.85993023 187.07731628 205.79975891 C186.66620809 202.03609239 185.31710893 200.04279454 182.79997253 197.26069641 C177.11871892 192.78822017 172.57392105 192.14352412 165.50016785 192.0995636 C163.62231598 192.08515228 163.62231598 192.08515228 161.70652771 192.07044983 C160.34705286 192.06560051 158.98757586 192.06132201 157.62809753 192.05757141 C156.59269962 192.05333035 156.59269962 192.05333035 155.53638458 192.0490036 C151.88205588 192.03404656 148.22776629 192.02479565 144.57341003 192.02046204 C140.82004225 192.01498859 137.06703927 191.99097475 133.31378555 191.96249008 C130.40878797 191.94376016 127.50387638 191.93865259 124.59882355 191.93712616 C123.21628073 191.93412141 121.83373862 191.9261675 120.4512558 191.91294098 C106.85659471 191.51225014 106.85659471 191.51225014 95.79997253 198.32319641 Z " fill="#000000" transform="translate(84.20002746582031,31.739303588867188)"/>
</svg>
